# Blender v2.80 (sub 75) OBJ File: 'cheese.blend'
# www.blender.org
mtllib cheese.mtl
o Cylinder
v 1.953017 -1.000000 0.000000
v -1.000000 -1.000000 -1.000000
v -1.000000 -1.000000 1.000000
v 1.953017 1.214384 0.000000
v -1.000000 1.214384 -1.000000
v -1.000000 1.214384 1.000000
vt 0.375000 0.250000
vt 0.625000 0.250000
vt 0.625000 0.500000
vt 0.375000 0.500000
vt 0.375000 0.500000
vt 0.625000 0.500000
vt 0.625000 0.750000
vt 0.375000 0.750000
vt 0.375000 0.750000
vt 0.625000 1.000000
vt 0.375000 1.000000
vt 0.125000 0.500000
vt 0.375000 0.500000
vt 0.375000 0.750000
vt 0.125000 0.750000
vt 0.625000 0.500000
vt 0.875000 0.750000
vt 0.625000 0.750000
vn -1.0000 -0.0000 0.0000
vn 0.3207 0.0000 0.9472
vn 0.0000 -1.0000 0.0000
vn 0.3207 0.0000 -0.9472
vn -0.0000 1.0000 0.0000
usemtl None
s off
f 5/1/1 2/2/1 3/3/1 6/4/1
f 3/5/2 1/6/2 4/7/2 6/8/2
f 2/9/3 1/10/3 3/11/3
f 5/12/4 4/13/4 1/14/4 2/15/4
f 6/16/5 4/17/5 5/18/5
